<svg xmlns="http://www.w3.org/2000/svg" width="1600" height="1000" viewBox="0 0 1600 1000">
  <defs>
    <style>
      .title { font: 700 34px Georgia, serif; fill: #133a2b; }
      .subtitle { font: 600 16px Segoe UI, Arial, sans-serif; fill: #c9971a; }
      .small { font: 12px Segoe UI, Arial, sans-serif; fill: #6b6b6b; }
      .box-title { font: 700 16px Georgia, serif; fill: #ffffff; }
      .box-text { font: 13px Segoe UI, Arial, sans-serif; fill: #1f1f1f; }
      .section-label { font: 700 13px Segoe UI, Arial, sans-serif; fill: #133a2b; letter-spacing: 1px; }
      .line { stroke: #5c7268; stroke-width: 2.2; fill: none; }
    </style>
    <marker id="arrow" viewBox="0 0 10 10" refX="8" refY="5" markerWidth="8" markerHeight="8" orient="auto-start-reverse">
      <path d="M 0 0 L 10 5 L 0 10 z" fill="#5c7268"/>
    </marker>
  </defs>

  <rect width="1600" height="1000" fill="#fcfbf8"/>

  <text x="60" y="70" class="title">WILDNEST</text>
  <text x="60" y="100" class="subtitle">Final Defense Simplified Class Diagram</text>
  <text x="60" y="125" class="small">Print this version for hard copy. It is cleaner and easier to explain than a giant auto-generated map.</text>

  <text x="80" y="185" class="section-label">PUBLIC SHELL</text>
  <text x="435" y="185" class="section-label">BOOKING AND PORTAL SERVICES</text>
  <text x="1010" y="185" class="section-label">STAFF OPERATIONS</text>

  <!-- Home column -->
  <g>
    <rect x="80" y="220" width="220" height="110" rx="16" fill="#ffffff" stroke="#1d4b39" stroke-width="2"/>
    <rect x="80" y="220" width="220" height="30" rx="16" fill="#123c2d"/>
    <rect x="80" y="235" width="220" height="15" fill="#123c2d"/>
    <text x="190" y="241" text-anchor="middle" class="box-title">HomePage</text>
    <text x="190" y="283" text-anchor="middle" class="box-text">Main public window</text>
    <text x="190" y="303" text-anchor="middle" class="box-text">Navigation hub</text>
  </g>

  <g>
    <rect x="80" y="395" width="220" height="110" rx="16" fill="#ffffff" stroke="#1d4b39" stroke-width="2"/>
    <rect x="80" y="395" width="220" height="30" rx="16" fill="#123c2d"/>
    <rect x="80" y="410" width="220" height="15" fill="#123c2d"/>
    <text x="190" y="416" text-anchor="middle" class="box-title">GuestPortalWebView</text>
    <text x="190" y="458" text-anchor="middle" class="box-text">Guest portal screen</text>
    <text x="190" y="478" text-anchor="middle" class="box-text">Receipt and QR access</text>
  </g>

  <g>
    <rect x="80" y="570" width="220" height="110" rx="16" fill="#ffffff" stroke="#1d4b39" stroke-width="2"/>
    <rect x="80" y="570" width="220" height="30" rx="16" fill="#123c2d"/>
    <rect x="80" y="585" width="220" height="15" fill="#123c2d"/>
    <text x="190" y="591" text-anchor="middle" class="box-title">StaffLogin</text>
    <text x="190" y="633" text-anchor="middle" class="box-text">Role-based login</text>
    <text x="190" y="653" text-anchor="middle" class="box-text">Entry to staff portals</text>
  </g>

  <!-- Booking middle -->
  <g>
    <rect x="390" y="280" width="250" height="120" rx="16" fill="#ffffff" stroke="#1d4b39" stroke-width="2"/>
    <rect x="390" y="280" width="250" height="32" rx="16" fill="#123c2d"/>
    <rect x="390" y="296" width="250" height="16" fill="#123c2d"/>
    <text x="515" y="303" text-anchor="middle" class="box-title">BookNow</text>
    <text x="515" y="344" text-anchor="middle" class="box-text">Booking interface</text>
    <text x="515" y="364" text-anchor="middle" class="box-text">Cabin, Day Visit, Experience, Full Stay</text>
  </g>

  <g>
    <rect x="390" y="490" width="250" height="100" rx="16" fill="#ffffff" stroke="#1d4b39" stroke-width="2"/>
    <rect x="390" y="490" width="250" height="30" rx="16" fill="#123c2d"/>
    <rect x="390" y="505" width="250" height="15" fill="#123c2d"/>
    <text x="515" y="511" text-anchor="middle" class="box-title">StaffDashboard</text>
    <text x="515" y="553" text-anchor="middle" class="box-text">Loads portal modules</text>
  </g>

  <!-- Service helpers -->
  <g>
    <rect x="720" y="210" width="220" height="90" rx="14" fill="#ffffff" stroke="#1d4b39" stroke-width="2"/>
    <rect x="720" y="210" width="220" height="28" rx="14" fill="#123c2d"/>
    <rect x="720" y="224" width="220" height="14" fill="#123c2d"/>
    <text x="830" y="230" text-anchor="middle" class="box-title">BookNowWebBridge</text>
    <text x="830" y="268" text-anchor="middle" class="box-text">HTML to C# bridge</text>
  </g>

  <g>
    <rect x="720" y="325" width="220" height="90" rx="14" fill="#ffffff" stroke="#1d4b39" stroke-width="2"/>
    <rect x="720" y="325" width="220" height="28" rx="14" fill="#123c2d"/>
    <rect x="720" y="339" width="220" height="14" fill="#123c2d"/>
    <text x="830" y="345" text-anchor="middle" class="box-title">BookingPersistence</text>
    <text x="830" y="383" text-anchor="middle" class="box-text">Stores reservations and payments</text>
  </g>

  <g>
    <rect x="720" y="440" width="220" height="90" rx="14" fill="#ffffff" stroke="#1d4b39" stroke-width="2"/>
    <rect x="720" y="440" width="220" height="28" rx="14" fill="#123c2d"/>
    <rect x="720" y="454" width="220" height="14" fill="#123c2d"/>
    <text x="830" y="460" text-anchor="middle" class="box-title">BookingIdGenerator</text>
    <text x="830" y="498" text-anchor="middle" class="box-text">Generates booking reference</text>
  </g>

  <g>
    <rect x="720" y="555" width="220" height="90" rx="14" fill="#ffffff" stroke="#1d4b39" stroke-width="2"/>
    <rect x="720" y="555" width="220" height="28" rx="14" fill="#123c2d"/>
    <rect x="720" y="569" width="220" height="14" fill="#123c2d"/>
    <text x="830" y="575" text-anchor="middle" class="box-title">EmailService</text>
    <text x="830" y="613" text-anchor="middle" class="box-text">Sends confirmations</text>
  </g>

  <g>
    <rect x="720" y="670" width="220" height="90" rx="14" fill="#ffffff" stroke="#1d4b39" stroke-width="2"/>
    <rect x="720" y="670" width="220" height="28" rx="14" fill="#123c2d"/>
    <rect x="720" y="684" width="220" height="14" fill="#123c2d"/>
    <text x="830" y="690" text-anchor="middle" class="box-title">GuestBookingPassGenerator</text>
    <text x="830" y="728" text-anchor="middle" class="box-text">Creates QR / booking pass</text>
  </g>

  <!-- Support -->
  <g>
    <rect x="1010" y="430" width="250" height="120" rx="16" fill="#ffffff" stroke="#1d4b39" stroke-width="2"/>
    <rect x="1010" y="430" width="250" height="32" rx="16" fill="#123c2d"/>
    <rect x="1010" y="446" width="250" height="16" fill="#123c2d"/>
    <text x="1135" y="453" text-anchor="middle" class="box-title">StaffPortalSupport</text>
    <text x="1135" y="493" text-anchor="middle" class="box-text">Shared DB helpers</text>
    <text x="1135" y="513" text-anchor="middle" class="box-text">Dialogs, reports, chat utilities</text>
  </g>

  <!-- Right roles -->
  <g>
    <rect x="1360" y="175" width="180" height="78" rx="14" fill="#ffffff" stroke="#1d4b39" stroke-width="2"/>
    <rect x="1360" y="175" width="180" height="26" rx="14" fill="#123c2d"/>
    <rect x="1360" y="188" width="180" height="13" fill="#123c2d"/>
    <text x="1450" y="195" text-anchor="middle" class="box-title">UcReceptionCheckIn</text>
    <text x="1450" y="228" text-anchor="middle" class="box-text">Check-in and payment</text>
  </g>
  <g>
    <rect x="1360" y="275" width="180" height="78" rx="14" fill="#ffffff" stroke="#1d4b39" stroke-width="2"/>
    <rect x="1360" y="275" width="180" height="26" rx="14" fill="#123c2d"/>
    <rect x="1360" y="288" width="180" height="13" fill="#123c2d"/>
    <text x="1450" y="295" text-anchor="middle" class="box-title">UcReceptionChat</text>
    <text x="1450" y="328" text-anchor="middle" class="box-text">Guest support chat</text>
  </g>
  <g>
    <rect x="1360" y="375" width="180" height="78" rx="14" fill="#ffffff" stroke="#1d4b39" stroke-width="2"/>
    <rect x="1360" y="375" width="180" height="26" rx="14" fill="#123c2d"/>
    <rect x="1360" y="388" width="180" height="13" fill="#123c2d"/>
    <text x="1450" y="395" text-anchor="middle" class="box-title">UcStaffChat</text>
    <text x="1450" y="428" text-anchor="middle" class="box-text">Internal staff messages</text>
  </g>
  <g>
    <rect x="1360" y="475" width="180" height="78" rx="14" fill="#ffffff" stroke="#1d4b39" stroke-width="2"/>
    <rect x="1360" y="475" width="180" height="26" rx="14" fill="#123c2d"/>
    <rect x="1360" y="488" width="180" height="13" fill="#123c2d"/>
    <text x="1450" y="495" text-anchor="middle" class="box-title">UcManagerDashboardContent</text>
    <text x="1450" y="528" text-anchor="middle" class="box-text">Manager analytics</text>
  </g>
  <g>
    <rect x="1360" y="575" width="180" height="78" rx="14" fill="#ffffff" stroke="#1d4b39" stroke-width="2"/>
    <rect x="1360" y="575" width="180" height="26" rx="14" fill="#123c2d"/>
    <rect x="1360" y="588" width="180" height="13" fill="#123c2d"/>
    <text x="1450" y="595" text-anchor="middle" class="box-title">UcTourGuideGroups</text>
    <text x="1450" y="628" text-anchor="middle" class="box-text">Tour event queue</text>
  </g>
  <g>
    <rect x="1360" y="675" width="180" height="78" rx="14" fill="#ffffff" stroke="#1d4b39" stroke-width="2"/>
    <rect x="1360" y="675" width="180" height="26" rx="14" fill="#123c2d"/>
    <rect x="1360" y="688" width="180" height="13" fill="#123c2d"/>
    <text x="1450" y="695" text-anchor="middle" class="box-title">UcZookeeperHealth</text>
    <text x="1450" y="728" text-anchor="middle" class="box-text">Health records</text>
  </g>
  <g>
    <rect x="1360" y="775" width="180" height="78" rx="14" fill="#ffffff" stroke="#1d4b39" stroke-width="2"/>
    <rect x="1360" y="775" width="180" height="26" rx="14" fill="#123c2d"/>
    <rect x="1360" y="788" width="180" height="13" fill="#123c2d"/>
    <text x="1450" y="795" text-anchor="middle" class="box-title">UcZookeeperFlag / Clear</text>
    <text x="1450" y="828" text-anchor="middle" class="box-text">Animal alert workflow</text>
  </g>

  <!-- Connectors -->
  <path d="M300 275 L390 340" class="line" marker-end="url(#arrow)"/>
  <path d="M300 275 L390 540" class="line" marker-end="url(#arrow)"/>
  <path d="M300 450 L390 450 L390 450" class="line" marker-end="url(#arrow)"/>
  <path d="M300 625 L390 540" class="line" marker-end="url(#arrow)"/>

  <path d="M640 340 L720 255" class="line" marker-end="url(#arrow)"/>
  <path d="M640 340 L720 370" class="line" marker-end="url(#arrow)"/>
  <path d="M640 340 L720 485" class="line" marker-end="url(#arrow)"/>
  <path d="M640 340 L720 600" class="line" marker-end="url(#arrow)"/>
  <path d="M640 340 L720 715" class="line" marker-end="url(#arrow)"/>

  <path d="M640 540 L1010 490" class="line" marker-end="url(#arrow)"/>
  <path d="M940 715 L1010 520" class="line" marker-end="url(#arrow)"/>

  <path d="M1260 490 L1360 214" class="line" marker-end="url(#arrow)"/>
  <path d="M1260 490 L1360 314" class="line" marker-end="url(#arrow)"/>
  <path d="M1260 490 L1360 414" class="line" marker-end="url(#arrow)"/>
  <path d="M1260 490 L1360 514" class="line" marker-end="url(#arrow)"/>
  <path d="M1260 490 L1360 614" class="line" marker-end="url(#arrow)"/>
  <path d="M1260 490 L1360 714" class="line" marker-end="url(#arrow)"/>
  <path d="M1260 490 L1360 814" class="line" marker-end="url(#arrow)"/>

  <text x="60" y="955" class="small">Recommended print: A3 landscape, color, fit to page.</text>
  <text x="60" y="975" class="small">Bring this class diagram together with the ERD. These are the only two hard-copy diagrams you need.</text>
</svg>
